<svg width="600" height="600" viewBox="0 0 600 600" fill="none" xmlns="http://www.w3.org/2000/svg">
<path d="M436.58 100.25V106.65H403.38V353.85H436.58V360.25H332.58V353.85H361.78V125.05H358.98L257.38 297.45C256.58 298.25 254.98 300.917 252.58 305.45C248.047 313.717 245.78 320.65 245.78 326.25C245.78 331.583 246.98 336.117 249.38 339.85C252.047 343.583 255.38 345.45 259.38 345.45C267.114 345.45 270.98 341.317 270.98 333.05C270.98 327.983 268.98 321.45 264.98 313.45L176.18 125.05H173.38V303.05C173.38 322.517 176.98 335.85 184.18 343.05C191.647 350.25 205.114 353.85 224.58 353.85H227.38V360.25H112.98V353.85C132.447 353.85 146.047 350.25 153.78 343.05C161.514 335.583 165.38 322.25 165.38 303.05V122.65C164.847 116.25 162.314 111.983 157.78 109.85C153.514 107.45 147.38 106.25 139.38 106.25H121.38V100.25H212.18L291.78 273.85C304.047 298.383 310.18 315.717 310.18 325.85C310.18 335.717 306.714 343.45 299.78 349.05C293.114 354.65 284.714 357.45 274.58 357.45C264.714 357.45 256.18 354.783 248.98 349.45C242.047 344.117 238.58 335.85 238.58 324.65C238.58 320.65 238.98 317.717 239.78 315.85C240.58 313.717 241.114 312.25 241.38 311.45C241.647 310.65 242.18 309.45 242.98 307.85L244.98 304.25C246.314 301.317 247.514 299.05 248.58 297.45C251.78 292.65 253.914 289.183 254.98 287.05L363.78 100.25H436.58Z" fill="black"/>
<path d="M398.02 288.75C418.02 288.75 434.687 293.017 448.02 301.55C461.62 310.083 468.42 322.883 468.42 339.95C468.42 366.35 453.353 382.617 423.22 388.75C408.02 391.683 389.087 393.15 366.42 393.15H347.62V404.75C347.62 426.35 352.02 443.95 360.82 457.55C369.887 470.883 382.953 477.55 400.02 477.55C417.353 477.55 430.82 472.483 440.42 462.35C450.287 452.217 457.22 439.15 461.22 423.15L468.42 423.95C464.153 443.417 455.487 459.15 442.42 471.15C429.62 482.883 413.353 488.75 393.62 488.75C365.887 488.75 344.82 479.683 330.42 461.55C316.02 443.15 308.82 418.883 308.82 388.75C308.82 358.617 316.553 334.483 332.02 316.35C347.487 297.95 369.487 288.75 398.02 288.75ZM347.62 385.95H361.62C383.22 385.95 398.287 383.817 406.82 379.55C415.62 375.283 421.62 370.083 424.82 363.95C428.02 357.55 429.62 348.617 429.62 337.15C429.62 325.683 426.687 315.95 420.82 307.95C415.22 299.683 406.553 295.55 394.82 295.55C383.087 295.55 373.487 299.817 366.02 308.35C358.82 316.617 353.887 326.35 351.22 337.55C348.82 348.75 347.62 361.15 347.62 374.75V385.95Z" fill="black"/>
<circle cx="300" cy="300" r="298" stroke="black" stroke-width="4"/>
</svg>
